<svg xmlns="http://www.w3.org/2000/svg" viewBox="0 0 180 108" role="img" aria-labelledby="title">
  <title id="title">Drapeau du pays de Galles</title>
  <path fill="#fff" d="M0 0h180v54H0z"/>
  <path fill="#168b47" d="M0 54h180v54H0z"/>
  <path fill="#cf1e2e" d="M45 77c8-7 10-14 8-22l10 4 6-8-8-6 14-1 4-12 8 10 13-5 13 8 18-2-7 10 12 7-14 3 7 13-13-6-10 9-6-13-12 3 4 17-10-9-9 13-2-17-14 8 5-15-15 1 11-10-14-3 16-5-8-8 17 3 2-15 8 11 11-8 1 13 13-6-5 15 16-1-12 10-17-1-10 7z"/>
  <circle cx="123" cy="43" r="2.5" fill="#fff"/>
</svg>
